<svg xmlns="http://www.w3.org/2000/svg" viewBox="0 0 364.39 150.35"><defs><style>.cls-1{fill:#2b223f;}.cls-2{fill:#f2cf69;}</style></defs><title>Asset 6</title><g id="Layer_2" data-name="Layer 2"><g id="Layer_1-2" data-name="Layer 1"><path class="cls-1" d="M175.46,72a10.32,10.32,0,0,1-5.33-1.44,10.82,10.82,0,0,1-3.89-3.89,10.32,10.32,0,0,1-1.44-5.33V30.78a10.25,10.25,0,0,1,1.44-5.36,10.87,10.87,0,0,1,3.89-3.85,10.32,10.32,0,0,1,5.33-1.44H206a10.13,10.13,0,0,1,5.29,1.44,11.29,11.29,0,0,1,3.89,3.85,10.09,10.09,0,0,1,1.47,5.36V61.31a10.16,10.16,0,0,1-1.47,5.33,11.23,11.23,0,0,1-3.89,3.89A10.13,10.13,0,0,1,206,72Zm29.88-11.24V31.36H176V60.73Z"/><path class="cls-2" d="M224.42,88.53V30.21h31.9a9.94,9.94,0,0,1,5.25,1.44,10.94,10.94,0,0,1,3.78,3.81,10,10,0,0,1,1.41,5.19V61.53a10,10,0,0,1-1.41,5.18,11,11,0,0,1-3.78,3.82A9.94,9.94,0,0,1,256.32,72H235.44V88.53ZM255.74,61V41.22h-20.3V61Z"/><path class="cls-1" d="M277.27,70.53a11.17,11.17,0,0,1-3.82-3.82A9.8,9.8,0,0,1,272,61.53V40.65a9.83,9.83,0,0,1,1.44-5.19,11.14,11.14,0,0,1,3.82-3.81,9.8,9.8,0,0,1,5.18-1.44h21.46a9.92,9.92,0,0,1,5.25,1.44,10.78,10.78,0,0,1,3.78,3.81,10,10,0,0,1,1.41,5.19v16H283V61h31.32V72h-31.9A9.8,9.8,0,0,1,277.27,70.53ZM283,47h20.3V41.22H283Z"/><path class="cls-1" d="M322.05,72V30.21H354a9.94,9.94,0,0,1,5.25,1.44A10.78,10.78,0,0,1,363,35.46a10,10,0,0,1,1.41,5.19V72h-11V41.22h-20.3V72Z"/><path class="cls-1" d="M175.57,130.23a10.32,10.32,0,0,1-5.33-1.44,10.82,10.82,0,0,1-3.89-3.89,10.32,10.32,0,0,1-1.44-5.33v-4.82h11.16V119h29.38v-9.07H175.57a10.32,10.32,0,0,1-5.33-1.44,10.87,10.87,0,0,1-3.89-3.85,10.28,10.28,0,0,1-1.44-5.36V89a10.25,10.25,0,0,1,1.44-5.36,10.87,10.87,0,0,1,3.89-3.85,10.32,10.32,0,0,1,5.33-1.44H206.1a10.13,10.13,0,0,1,5.29,1.44,11.29,11.29,0,0,1,3.89,3.85A10.09,10.09,0,0,1,216.75,89v4.83h-11.3V89.62H176.07v9.07h30a10.13,10.13,0,0,1,5.29,1.44,11.29,11.29,0,0,1,3.89,3.85,10.13,10.13,0,0,1,1.47,5.37v10.22a10.16,10.16,0,0,1-1.47,5.33,11.23,11.23,0,0,1-3.89,3.89,10.13,10.13,0,0,1-5.29,1.44Z"/><path class="cls-1" d="M234.83,130.23a10,10,0,0,1-5.26-1.44,11,11,0,0,1-3.78-3.82,10,10,0,0,1-1.4-5.18v-16h31.32V99.48H224.39v-11h31.89a10,10,0,0,1,5.26,1.44,10.94,10.94,0,0,1,3.78,3.81,10.08,10.08,0,0,1,1.4,5.19v31.32Zm20.88-11v-5.76H235.4v5.76Z"/><path class="cls-2" d="M277.67,128.79a11.17,11.17,0,0,1-3.82-3.82,9.8,9.8,0,0,1-1.44-5.18V74.71H283.5v44.5h8.42v11h-9.07A9.8,9.8,0,0,1,277.67,128.79Z"/><path class="cls-1" d="M302.58,128.79a11.17,11.17,0,0,1-3.82-3.82,9.8,9.8,0,0,1-1.44-5.18V98.91a9.83,9.83,0,0,1,1.44-5.19,11.14,11.14,0,0,1,3.82-3.81,9.8,9.8,0,0,1,5.18-1.44h21.46a9.92,9.92,0,0,1,5.25,1.44,10.78,10.78,0,0,1,3.78,3.81,10,10,0,0,1,1.41,5.19v16H308.34v4.32h31.32v11h-31.9A9.8,9.8,0,0,1,302.58,128.79Zm5.76-23.55h20.3V99.48h-20.3Z"/><path class="cls-2" d="M88.44,83.58c-.15-3.25-.94-10-4.89-14.09-2.29-2.41-5.29-3.57-9.16-3.57A12,12,0,0,0,65.2,69.5c-3.69,3.88-4.71,10.34-4.87,14.06A80.91,80.91,0,0,0,88.44,83.58Z"/><path class="cls-1" d="M146.07,15.35A32.68,32.68,0,0,0,134.79,4.18,29.33,29.33,0,0,0,119.44,0H30.9A29.89,29.89,0,0,0,15.45,4.18,31.5,31.5,0,0,0,4.18,15.35,29.72,29.72,0,0,0,0,30.91v88.54A29.86,29.86,0,0,0,4.18,134.9a31.33,31.33,0,0,0,11.27,11.28,30,30,0,0,0,15.45,4.17H42.4a2.75,2.75,0,0,1-1-2.7,222.76,222.76,0,0,0,2.22-64.26,2.74,2.74,0,0,1,.07-1.06,2,2,0,0,1,.07-.23,2.75,2.75,0,0,1,1.18-1.45h0a3.55,3.55,0,0,1,.44-.21h0a2.8,2.8,0,0,1,1.65-.1l.19.06c2.58.81,5.13,1.48,7.68,2.07.28-4.25,1.5-11.69,6.34-16.77a17.47,17.47,0,0,1,13.2-5.31,17.46,17.46,0,0,1,13.19,5.31c4.81,5,6,12.45,6.34,16.71,2.16-.56,4.31-1.21,6.43-2a2.78,2.78,0,0,1,1.48-.13h.06a2.76,2.76,0,0,1,1.66,1h0l.12.18a2.78,2.78,0,0,1,.41,1.8,221.75,221.75,0,0,0,2.22,64.31,2.78,2.78,0,0,1-.88,2.56l-.22.14h14.24a29.42,29.42,0,0,0,15.35-4.17,32.49,32.49,0,0,0,11.28-11.28,29.4,29.4,0,0,0,4.28-15.45V30.91A29.25,29.25,0,0,0,146.07,15.35Z"/></g></g></svg>